<mxfile host="app.diagrams.net" modified="2023-06-12T11:27:27.586Z" agent="Mozilla/5.0 (X11; Ubuntu; Linux x86_64; rv:109.0) Gecko/20100101 Firefox/113.0" etag="R5z9MPnKceUZnzpzz1Sl" version="21.3.8" type="device">
  <diagram name="Page-1" id="hzzXAWc1Qq5PwZYmiPRT">
    <mxGraphModel dx="953" dy="550" grid="1" gridSize="10" guides="1" tooltips="1" connect="1" arrows="1" fold="1" page="1" pageScale="1" pageWidth="850" pageHeight="1100" math="0" shadow="0">
      <root>
        <mxCell id="0" />
        <mxCell id="1" parent="0" />
        <mxCell id="PjbD4Budgg40nLlotNNH-73" value="" style="rounded=0;whiteSpace=wrap;html=1;" vertex="1" parent="1">
          <mxGeometry x="320" y="10" width="360" height="440" as="geometry" />
        </mxCell>
        <mxCell id="PjbD4Budgg40nLlotNNH-72" value="" style="rounded=0;whiteSpace=wrap;html=1;" vertex="1" parent="1">
          <mxGeometry x="30" y="10" width="180" height="440" as="geometry" />
        </mxCell>
        <mxCell id="PjbD4Budgg40nLlotNNH-1" value="" style="rounded=0;whiteSpace=wrap;html=1;" vertex="1" parent="1">
          <mxGeometry x="40" y="60" width="160" height="70" as="geometry" />
        </mxCell>
        <mxCell id="PjbD4Budgg40nLlotNNH-16" value="key 0" style="rounded=0;whiteSpace=wrap;html=1;" vertex="1" parent="1">
          <mxGeometry x="80" y="100" width="80" height="20" as="geometry" />
        </mxCell>
        <mxCell id="PjbD4Budgg40nLlotNNH-18" value="" style="rounded=0;whiteSpace=wrap;html=1;" vertex="1" parent="1">
          <mxGeometry x="40" y="140" width="160" height="70" as="geometry" />
        </mxCell>
        <mxCell id="PjbD4Budgg40nLlotNNH-19" value="key 1" style="rounded=0;whiteSpace=wrap;html=1;" vertex="1" parent="1">
          <mxGeometry x="80" y="180" width="80" height="20" as="geometry" />
        </mxCell>
        <mxCell id="PjbD4Budgg40nLlotNNH-34" value="Node 0" style="text;html=1;strokeColor=none;fillColor=none;align=center;verticalAlign=middle;whiteSpace=wrap;rounded=0;" vertex="1" parent="1">
          <mxGeometry x="90" y="60" width="60" height="30" as="geometry" />
        </mxCell>
        <mxCell id="PjbD4Budgg40nLlotNNH-35" value="Node 1" style="text;html=1;strokeColor=none;fillColor=none;align=center;verticalAlign=middle;whiteSpace=wrap;rounded=0;" vertex="1" parent="1">
          <mxGeometry x="90" y="140" width="60" height="30" as="geometry" />
        </mxCell>
        <mxCell id="PjbD4Budgg40nLlotNNH-36" value="" style="endArrow=none;dashed=1;html=1;dashPattern=1 3;strokeWidth=2;rounded=0;" edge="1" parent="1">
          <mxGeometry width="50" height="50" relative="1" as="geometry">
            <mxPoint x="119.75999999999999" y="280" as="sourcePoint" />
            <mxPoint x="119.75999999999999" y="220" as="targetPoint" />
          </mxGeometry>
        </mxCell>
        <mxCell id="PjbD4Budgg40nLlotNNH-37" value="" style="rounded=0;whiteSpace=wrap;html=1;" vertex="1" parent="1">
          <mxGeometry x="40" y="370" width="160" height="70" as="geometry" />
        </mxCell>
        <mxCell id="PjbD4Budgg40nLlotNNH-38" value="key 15" style="rounded=0;whiteSpace=wrap;html=1;" vertex="1" parent="1">
          <mxGeometry x="80" y="410" width="80" height="20" as="geometry" />
        </mxCell>
        <mxCell id="PjbD4Budgg40nLlotNNH-39" value="Node 15" style="text;html=1;strokeColor=none;fillColor=none;align=center;verticalAlign=middle;whiteSpace=wrap;rounded=0;" vertex="1" parent="1">
          <mxGeometry x="90" y="370" width="60" height="30" as="geometry" />
        </mxCell>
        <mxCell id="PjbD4Budgg40nLlotNNH-40" value="" style="shape=flexArrow;endArrow=classic;html=1;rounded=0;" edge="1" parent="1">
          <mxGeometry width="50" height="50" relative="1" as="geometry">
            <mxPoint x="230" y="229.52" as="sourcePoint" />
            <mxPoint x="300" y="229.52" as="targetPoint" />
          </mxGeometry>
        </mxCell>
        <mxCell id="PjbD4Budgg40nLlotNNH-43" value="" style="rounded=0;whiteSpace=wrap;html=1;" vertex="1" parent="1">
          <mxGeometry x="40" y="290" width="160" height="70" as="geometry" />
        </mxCell>
        <mxCell id="PjbD4Budgg40nLlotNNH-44" value="key 14" style="rounded=0;whiteSpace=wrap;html=1;" vertex="1" parent="1">
          <mxGeometry x="80" y="330" width="80" height="20" as="geometry" />
        </mxCell>
        <mxCell id="PjbD4Budgg40nLlotNNH-45" value="Node 14" style="text;html=1;strokeColor=none;fillColor=none;align=center;verticalAlign=middle;whiteSpace=wrap;rounded=0;" vertex="1" parent="1">
          <mxGeometry x="90" y="290" width="60" height="30" as="geometry" />
        </mxCell>
        <mxCell id="PjbD4Budgg40nLlotNNH-46" value="" style="rounded=0;whiteSpace=wrap;html=1;" vertex="1" parent="1">
          <mxGeometry x="330" y="60" width="160" height="180" as="geometry" />
        </mxCell>
        <mxCell id="PjbD4Budgg40nLlotNNH-47" value="key 0" style="rounded=0;whiteSpace=wrap;html=1;" vertex="1" parent="1">
          <mxGeometry x="370" y="100" width="80" height="20" as="geometry" />
        </mxCell>
        <mxCell id="PjbD4Budgg40nLlotNNH-48" value="Node 0 (shard 0)" style="text;html=1;strokeColor=none;fillColor=none;align=center;verticalAlign=middle;whiteSpace=wrap;rounded=0;" vertex="1" parent="1">
          <mxGeometry x="380" y="60" width="60" height="30" as="geometry" />
        </mxCell>
        <mxCell id="PjbD4Budgg40nLlotNNH-49" value="key 1" style="rounded=0;whiteSpace=wrap;html=1;" vertex="1" parent="1">
          <mxGeometry x="370" y="130" width="80" height="20" as="geometry" />
        </mxCell>
        <mxCell id="PjbD4Budgg40nLlotNNH-50" value="" style="endArrow=none;dashed=1;html=1;dashPattern=1 3;strokeWidth=2;rounded=0;" edge="1" parent="1">
          <mxGeometry width="50" height="50" relative="1" as="geometry">
            <mxPoint x="410" y="200" as="sourcePoint" />
            <mxPoint x="410" y="160" as="targetPoint" />
          </mxGeometry>
        </mxCell>
        <mxCell id="PjbD4Budgg40nLlotNNH-51" value="key 15" style="rounded=0;whiteSpace=wrap;html=1;" vertex="1" parent="1">
          <mxGeometry x="370" y="210" width="80" height="20" as="geometry" />
        </mxCell>
        <mxCell id="PjbD4Budgg40nLlotNNH-52" value="" style="rounded=0;whiteSpace=wrap;html=1;" vertex="1" parent="1">
          <mxGeometry x="510" y="60" width="160" height="180" as="geometry" />
        </mxCell>
        <mxCell id="PjbD4Budgg40nLlotNNH-53" value="key 0" style="rounded=0;whiteSpace=wrap;html=1;" vertex="1" parent="1">
          <mxGeometry x="550" y="100" width="80" height="20" as="geometry" />
        </mxCell>
        <mxCell id="PjbD4Budgg40nLlotNNH-54" value="Node 1 (shard 1)" style="text;html=1;strokeColor=none;fillColor=none;align=center;verticalAlign=middle;whiteSpace=wrap;rounded=0;" vertex="1" parent="1">
          <mxGeometry x="560" y="60" width="60" height="30" as="geometry" />
        </mxCell>
        <mxCell id="PjbD4Budgg40nLlotNNH-55" value="key 1" style="rounded=0;whiteSpace=wrap;html=1;" vertex="1" parent="1">
          <mxGeometry x="550" y="130" width="80" height="20" as="geometry" />
        </mxCell>
        <mxCell id="PjbD4Budgg40nLlotNNH-56" value="" style="endArrow=none;dashed=1;html=1;dashPattern=1 3;strokeWidth=2;rounded=0;" edge="1" parent="1">
          <mxGeometry width="50" height="50" relative="1" as="geometry">
            <mxPoint x="590" y="200" as="sourcePoint" />
            <mxPoint x="590" y="160" as="targetPoint" />
          </mxGeometry>
        </mxCell>
        <mxCell id="PjbD4Budgg40nLlotNNH-57" value="key 15" style="rounded=0;whiteSpace=wrap;html=1;" vertex="1" parent="1">
          <mxGeometry x="550" y="210" width="80" height="20" as="geometry" />
        </mxCell>
        <mxCell id="PjbD4Budgg40nLlotNNH-58" value="" style="rounded=0;whiteSpace=wrap;html=1;" vertex="1" parent="1">
          <mxGeometry x="330" y="260" width="160" height="180" as="geometry" />
        </mxCell>
        <mxCell id="PjbD4Budgg40nLlotNNH-59" value="key 0" style="rounded=0;whiteSpace=wrap;html=1;" vertex="1" parent="1">
          <mxGeometry x="370" y="300" width="80" height="20" as="geometry" />
        </mxCell>
        <mxCell id="PjbD4Budgg40nLlotNNH-60" value="Node 2 (shard 2)" style="text;html=1;strokeColor=none;fillColor=none;align=center;verticalAlign=middle;whiteSpace=wrap;rounded=0;" vertex="1" parent="1">
          <mxGeometry x="380" y="260" width="60" height="30" as="geometry" />
        </mxCell>
        <mxCell id="PjbD4Budgg40nLlotNNH-61" value="key 1" style="rounded=0;whiteSpace=wrap;html=1;" vertex="1" parent="1">
          <mxGeometry x="370" y="330" width="80" height="20" as="geometry" />
        </mxCell>
        <mxCell id="PjbD4Budgg40nLlotNNH-62" value="" style="endArrow=none;dashed=1;html=1;dashPattern=1 3;strokeWidth=2;rounded=0;" edge="1" parent="1">
          <mxGeometry width="50" height="50" relative="1" as="geometry">
            <mxPoint x="410" y="400" as="sourcePoint" />
            <mxPoint x="410" y="360" as="targetPoint" />
          </mxGeometry>
        </mxCell>
        <mxCell id="PjbD4Budgg40nLlotNNH-63" value="key 15" style="rounded=0;whiteSpace=wrap;html=1;" vertex="1" parent="1">
          <mxGeometry x="370" y="410" width="80" height="20" as="geometry" />
        </mxCell>
        <mxCell id="PjbD4Budgg40nLlotNNH-64" value="" style="rounded=0;whiteSpace=wrap;html=1;" vertex="1" parent="1">
          <mxGeometry x="510" y="260" width="160" height="180" as="geometry" />
        </mxCell>
        <mxCell id="PjbD4Budgg40nLlotNNH-65" value="key 0" style="rounded=0;whiteSpace=wrap;html=1;" vertex="1" parent="1">
          <mxGeometry x="550" y="300" width="80" height="20" as="geometry" />
        </mxCell>
        <mxCell id="PjbD4Budgg40nLlotNNH-66" value="Node 3 (metachain)" style="text;html=1;strokeColor=none;fillColor=none;align=center;verticalAlign=middle;whiteSpace=wrap;rounded=0;" vertex="1" parent="1">
          <mxGeometry x="560" y="260" width="60" height="30" as="geometry" />
        </mxCell>
        <mxCell id="PjbD4Budgg40nLlotNNH-67" value="key 1" style="rounded=0;whiteSpace=wrap;html=1;" vertex="1" parent="1">
          <mxGeometry x="550" y="330" width="80" height="20" as="geometry" />
        </mxCell>
        <mxCell id="PjbD4Budgg40nLlotNNH-68" value="" style="endArrow=none;dashed=1;html=1;dashPattern=1 3;strokeWidth=2;rounded=0;" edge="1" parent="1">
          <mxGeometry width="50" height="50" relative="1" as="geometry">
            <mxPoint x="590" y="400" as="sourcePoint" />
            <mxPoint x="590" y="360" as="targetPoint" />
          </mxGeometry>
        </mxCell>
        <mxCell id="PjbD4Budgg40nLlotNNH-69" value="key 15" style="rounded=0;whiteSpace=wrap;html=1;" vertex="1" parent="1">
          <mxGeometry x="550" y="410" width="80" height="20" as="geometry" />
        </mxCell>
        <mxCell id="PjbD4Budgg40nLlotNNH-70" value="One key per node" style="text;html=1;strokeColor=none;fillColor=none;align=center;verticalAlign=middle;whiteSpace=wrap;rounded=0;" vertex="1" parent="1">
          <mxGeometry x="70" y="20" width="90" height="30" as="geometry" />
        </mxCell>
        <mxCell id="PjbD4Budgg40nLlotNNH-71" value="Multikey" style="text;html=1;strokeColor=none;fillColor=none;align=center;verticalAlign=middle;whiteSpace=wrap;rounded=0;" vertex="1" parent="1">
          <mxGeometry x="455" y="20" width="90" height="30" as="geometry" />
        </mxCell>
      </root>
    </mxGraphModel>
  </diagram>
</mxfile>
